<svg width="40" height="45" viewBox="0 0 40 45" fill="none" xmlns="http://www.w3.org/2000/svg">
<path d="M20 0C19.2294 0 18.6047 0.624744 18.6047 1.39535V5.11628C18.6047 5.88693 19.2294 6.51163 20 6.51163C20.7707 6.51163 21.3953 5.88693 21.3953 5.11628V1.39535C21.3953 0.624744 20.7707 0 20 0ZM6.84595 5.45058C6.48879 5.45058 6.13005 5.58509 5.85758 5.85756C5.3127 6.40244 5.3127 7.28946 5.85758 7.8343L8.48837 10.4651C9.0333 11.01 9.92023 11.01 10.4651 10.4651C11.01 9.92019 11.01 9.0333 10.4651 8.48837L7.83433 5.85756C7.56181 5.58509 7.20302 5.45058 6.84595 5.45058ZM33.154 5.45058C32.797 5.45058 32.4382 5.58509 32.1657 5.85756L29.5349 8.48837C28.99 9.0333 28.99 9.92019 29.5349 10.4651C30.0798 11.01 30.9667 11.01 31.5116 10.4651L34.1424 7.8343C34.6873 7.28946 34.6873 6.40244 34.1424 5.85756C33.87 5.58509 33.5112 5.45058 33.154 5.45058ZM20 8.37209C13.6061 8.37209 7.44186 13.3475 7.44186 20.3924C7.44186 24.7788 9.1793 27.6213 10.7267 29.811C12.2742 32.0008 13.4884 33.4843 13.4884 35.814V41.3953C13.4884 43.2291 15.0124 44.6512 16.7442 44.6512H23.2558C24.9876 44.6512 26.5116 43.2291 26.5116 41.3953V35.814C26.5116 33.4843 27.7258 32.0008 29.2733 29.811C30.8207 27.6213 32.5581 24.7788 32.5581 20.3924C32.5581 13.3475 26.3939 8.37209 20 8.37209ZM20 11.1628C24.9505 11.1628 29.7674 14.9887 29.7674 20.3924C29.7674 24.0823 28.4816 26.1093 27.0058 28.1977C25.7475 29.9783 24.2522 31.8473 23.8372 34.4186H16.1628C15.7478 31.8473 14.2525 29.9783 12.9942 28.1977C11.5184 26.1093 10.2326 24.0823 10.2326 20.3924C10.2326 14.9887 15.0495 11.1628 20 11.1628ZM17.8052 12.5581C17.6067 12.551 17.3944 12.5779 17.1802 12.6308C14.153 13.7723 11.8867 16.4386 11.3081 19.6948C11.1825 20.4178 11.7188 21.1971 12.4419 21.3226C13.1649 21.4482 13.9443 20.8975 14.0698 20.1744C14.4751 17.8933 16.0543 16.0298 18.1686 15.2326C18.7748 15.0072 19.1682 14.3142 19.0553 13.6773C18.8875 12.8963 18.4009 12.5796 17.8052 12.5581ZM1.39535 18.6046C0.624744 18.6046 0 19.2293 0 20C0 20.7706 0.624744 21.3953 1.39535 21.3953H5.11628C5.88693 21.3953 6.51163 20.7706 6.51163 20C6.51163 19.2293 5.88693 18.6046 5.11628 18.6046H1.39535ZM34.8837 18.6046C34.1131 18.6046 33.4884 19.2294 33.4884 20C33.4884 20.7706 34.1131 21.3953 34.8837 21.3953H38.6047C39.3753 21.3953 40 20.7706 40 20C40 19.2294 39.3753 18.6046 38.6047 18.6046H34.8837ZM16.2791 37.2093H23.7209V38.1395H16.2791V37.2093ZM16.2791 40.9302H23.7209V41.3953C23.7209 41.6994 23.4873 41.8605 23.2558 41.8605H16.7442C16.5127 41.8605 16.2791 41.6994 16.2791 41.3953V40.9302Z" fill="#01A9F4"/>
</svg>
