<svg width="15" height="15" viewBox="0 0 15 15" fill="none" xmlns="http://www.w3.org/2000/svg">
<path d="M7.5 14.1487C5.49671 14.1487 3.61324 13.4128 2.19669 12.0767C0.780144 10.7405 0 8.96393 0 7.07434C0 5.18475 0.780144 3.40817 2.19669 2.07202C3.61324 0.735867 5.49671 0 7.5 0C9.50329 0 11.3868 0.735867 12.8033 2.07202C14.2199 3.40817 15 5.18475 15 7.07434C15 8.96393 14.2199 10.7405 12.8033 12.0767C11.3868 13.4128 9.50329 14.1487 7.5 14.1487ZM7.5 1.10537C4.0107 1.10537 1.17188 3.78307 1.17188 7.07434C1.17188 10.3656 4.0107 13.0433 7.5 13.0433C10.9893 13.0433 13.8281 10.3656 13.8281 7.07434C13.8281 3.78307 10.9893 1.10537 7.5 1.10537ZM10.5867 9.98586L9.75803 9.20422C8.51292 10.3787 6.48708 10.3787 5.24197 9.20422C3.99685 8.02977 3.99685 6.11891 5.24197 4.94446C6.48708 3.77001 8.51292 3.77001 9.75803 4.94446L10.5867 4.16282C8.88462 2.55745 6.11526 2.55745 4.4133 4.16282C2.71133 5.7683 2.71133 8.38049 4.4133 9.98586C5.26428 10.7885 6.38214 11.1899 7.5 11.1899C8.61774 11.1899 9.73572 10.7885 10.5867 9.98586Z" fill="white"/>
</svg>
