<svg width="40" height="41" viewBox="0 0 40 41" fill="none" xmlns="http://www.w3.org/2000/svg">
<path d="M22.75 23.9922C22.25 23.4922 21.1667 24.0756 20.5834 23.7422C19.25 23.0756 19.5 23.3256 19.1667 22.2422C18.9167 21.3256 18 22.0756 17.5 21.4089L16.9167 20.5756C16.5 19.9922 16.0834 20.4922 15.5 20.2422C14.8334 19.9089 14.1667 19.4089 13.75 20.0756C13.5834 20.3256 12.5 22.2422 12.25 22.4089C11.8334 22.6589 11.4167 22.8256 11.4167 23.3256C11.4167 24.4089 11.25 24.9089 11.6667 25.2422C13.0834 26.3256 12.8334 26.1589 12.8334 26.9089C12.8334 27.8256 14.5 27.8256 14.6667 28.6589C15.25 32.2422 15.25 31.4089 14.8334 32.9089C14.5 33.8256 15.75 33.6589 15.5834 34.5756C15.25 36.3256 15 35.6589 17.1667 37.9089C17.5834 38.4089 18.6667 38.2422 18.6667 37.4089C18.6667 35.6589 18.8334 36.0756 17.9167 34.9089C17.6667 34.5756 17.75 34.0756 18.1667 33.8256C18.4167 33.6589 19 33.4922 19.0834 33.2422C21 30.6589 20.6667 31.4922 20.5834 29.3256C21.8334 29.7422 21.6667 29.7422 22.5 28.7422C22.8334 28.3256 22.5 26.8256 22.75 26.3256L23.25 25.2422C23.5834 24.7422 23.1667 24.4089 22.75 23.9922Z" fill="#8C71EF"/>
<path d="M20 0.325562C9 0.325562 0 9.32556 0 20.3256C0 31.3256 9 40.3256 20 40.3256C31 40.3256 40 31.3256 40 20.3256C40 9.32556 31 0.325562 20 0.325562ZM20 38.6589C9.91667 38.6589 1.66667 30.4089 1.66667 20.3256C1.66667 18.1589 2.08333 15.9922 2.75 14.0756C4.25 17.8256 3.33333 16.7422 6.5 18.4922C7 18.7422 7.66667 18.4922 7.75 17.9089C8.25 16.1589 8.25 15.3256 9.08333 15.3256C12 15.3256 10.8333 15.5756 13.75 13.9922C14.5 13.5756 13.9167 12.8256 14.5833 12.4089C18.0833 9.99223 16.75 10.6589 19.5833 9.82556C20.0833 9.65889 20.3333 9.07556 20.1667 8.57556C19.6667 7.49223 22.0833 5.99223 20.4167 5.32556C16.9167 3.82556 17.8333 3.99223 15.5833 3.99223C15.4167 3.99223 15.25 4.07556 15.0833 4.15889C12.75 5.90889 13.6667 5.74223 10.1667 4.74223C13.0833 2.99223 16.4167 1.99223 20 1.99223C24.5833 1.99223 28.75 3.6589 31.9167 6.4089C30.4167 7.49223 33.3333 8.32556 31.25 9.40889C30.6667 9.74223 30.6667 10.5756 31.1667 10.9089C31.3333 10.9922 32 11.4922 32.0833 11.5756C34.25 12.4922 35.1667 13.1589 35.75 12.4922C35.9167 12.3256 36.1667 12.2422 36.3333 12.1589C36.6667 12.8256 37 13.4922 37.25 14.2422C36.6667 13.9922 36.25 13.8256 35.9167 14.2422C35.5 14.6589 35.25 15.0756 34.75 14.9089C34.0833 14.7422 33.25 14.6589 33.25 13.9089C33.25 13.4089 32.75 13.0756 32.25 13.1589C29.75 13.8256 30.6667 13.7422 28.6667 13.7422C27.9167 13.7422 27.9167 14.4089 27.75 15.0756C27.5833 15.9922 25.3333 16.3256 25.4167 17.4089C25.8333 20.9922 25.25 19.9089 27.6667 22.0756C28.5833 22.9089 30.25 20.7422 31.3333 22.0756C31.6667 22.4089 32.0833 22.3256 32.5833 22.3256V24.3256C32.5833 24.4922 32.6667 24.6589 32.75 24.8256C33.8333 26.3256 33.75 25.9089 33.0833 27.6589C32.75 28.4922 33.75 28.5756 33.5833 29.3256L33.5 29.7422C33.3333 30.6589 34.5 30.5756 34.5 31.4922C31.25 35.8256 25.9167 38.6589 20 38.6589Z" fill="#8C71EF"/>
</svg>
