<svg width="38" height="39" viewBox="0 0 38 39" fill="none" xmlns="http://www.w3.org/2000/svg">
<path d="M11.2059 0.480286C5.03127 0.478145 1.17647e-07 5.51203 0 11.6861C-1.88235e-07 18.4078 4.11989 22.5491 8.21351 26.057C12.3071 29.565 16.3457 32.5996 17.4666 37.2204C17.5327 37.4914 17.6878 37.7325 17.9072 37.9048C18.1266 38.0772 18.3975 38.1709 18.6765 38.1709C18.9555 38.1709 19.2264 38.0772 19.4457 37.9048C19.6651 37.7325 19.8203 37.4914 19.8863 37.2204C21.0073 32.5996 25.0458 29.565 29.1394 26.057C33.2331 22.5491 37.3529 18.4077 37.3529 11.6861C37.3529 5.51201 32.3212 0.480286 26.1471 0.480286C23.177 0.480286 20.6529 1.59647 18.6777 3.41428C16.6997 1.59725 14.1757 0.481298 11.2059 0.480286ZM11.2059 2.97045C13.9871 2.97141 16.0744 4.02137 17.7414 5.93116C17.8584 6.06497 18.0027 6.17224 18.1645 6.24567C18.3264 6.3191 18.5021 6.35701 18.6798 6.35689C18.8575 6.35678 19.0332 6.31866 19.1949 6.24502C19.3567 6.17138 19.5008 6.0639 19.6176 5.92994C21.2793 4.02125 23.3663 2.97045 26.1471 2.97045C30.9754 2.97045 34.8627 6.85782 34.8627 11.6861C34.8627 17.412 31.5159 20.7408 27.5186 24.1663C24.3158 26.9109 20.7055 29.6357 18.6765 33.524C16.6475 29.6357 13.0372 26.9109 9.83433 24.1663C5.837 20.7408 2.4902 17.412 2.4902 11.6861C2.4902 6.85782 6.37812 2.96878 11.2059 2.97045Z" fill="#00BC13"/>
</svg>
