<svg width="38" height="39" viewBox="0 0 38 39" fill="none" xmlns="http://www.w3.org/2000/svg">
<path d="M11.2059 0.480286C5.03127 0.478145 1.17647e-07 5.51203 0 11.6861C-1.88235e-07 18.4078 4.11989 22.5491 8.21351 26.057C12.3071 29.565 16.3457 32.5996 17.4666 37.2204C17.5327 37.4914 17.6878 37.7325 17.9072 37.9048C18.1266 38.0772 18.3975 38.1709 18.6765 38.1709C18.9555 38.1709 19.2264 38.0772 19.4457 37.9048C19.6651 37.7325 19.8203 37.4914 19.8863 37.2204C21.0073 32.5996 25.0458 29.565 29.1394 26.057C33.2331 22.5491 37.3529 18.4077 37.3529 11.6861C37.3529 5.51201 32.3212 0.480286 26.1471 0.480286C23.177 0.480286 20.6529 1.59647 18.6777 3.41428C16.6997 1.59725 14.1757 0.481298 11.2059 0.480286ZM11.2059 2.97045C13.9871 2.97141 16.0744 4.02137 17.7414 5.93116C17.8584 6.06497 18.0027 6.17224 18.1645 6.24567C18.3264 6.3191 18.5021 6.35701 18.6798 6.35689C18.8575 6.35678 19.0332 6.31866 19.1949 6.24502C19.3567 6.17138 19.5008 6.0639 19.6176 5.92994C21.2793 4.02125 23.3663 2.97045 26.1471 2.97045C30.9754 2.97045 34.8627 6.85782 34.8627 11.6861C34.8627 17.412 31.5159 20.7408 27.5186 24.1663C24.3158 26.9109 20.7055 29.6357 18.6765 33.524C16.6475 29.6357 13.0372 26.9109 9.83433 24.1663C5.837 20.7408 2.4902 17.412 2.4902 11.6861C2.4902 6.85782 6.37812 2.96878 11.2059 2.97045Z" fill="#00BC13"/>
<path d="M18.6583 10.4253C18.3289 10.4301 18.0149 10.5652 17.785 10.8011C17.555 11.037 17.4279 11.3543 17.4314 11.6837V15.4202H13.6949C13.3645 15.4202 13.0477 15.5515 12.8141 15.7851C12.5805 16.0187 12.4492 16.3356 12.4492 16.666C12.4492 16.9963 12.5805 17.3132 12.8141 17.5468C13.0477 17.7804 13.3645 17.9117 13.6949 17.9117H17.4314V21.6469C17.4314 21.9773 17.5627 22.2942 17.7963 22.5278C18.0299 22.7614 18.3468 22.8927 18.6771 22.8927C19.0075 22.8927 19.3244 22.7614 19.558 22.5278C19.7916 22.2942 19.9228 21.9773 19.9228 21.6469V17.9117H23.6581C23.9885 17.9117 24.3054 17.7804 24.539 17.5468C24.7726 17.3132 24.9039 16.9963 24.9039 16.666C24.9039 16.3356 24.7726 16.0187 24.539 15.7851C24.3054 15.5515 23.9885 15.4202 23.6581 15.4202H19.9228V11.6837C19.9246 11.5175 19.8931 11.3525 19.8301 11.1986C19.7671 11.0447 19.6739 10.905 19.5561 10.7877C19.4382 10.6704 19.298 10.5779 19.1439 10.5157C18.9897 10.4534 18.8246 10.4227 18.6583 10.4253Z" fill="#00BC13"/>
</svg>
