<svg width="14" height="11" viewBox="0 0 14 11" fill="none" xmlns="http://www.w3.org/2000/svg">
<path d="M12.5 4.89144H1.65788L5.80951 0.937089C6.0269 0.730024 6.03533 0.386002 5.82826 0.168611C5.62147 -0.0485088 5.27745 -0.0572045 5.05978 0.149861L0.318478 4.66616C0.113315 4.8716 0 5.14443 0 5.43492C0 5.72513 0.113315 5.99823 0.327989 6.21263L5.06005 10.7197C5.16522 10.82 5.3 10.8697 5.43478 10.8697C5.57826 10.8697 5.72174 10.8132 5.82853 10.7009C6.0356 10.4836 6.02717 10.1398 5.80978 9.93274L1.64076 5.97839H12.5C12.8 5.97839 13.0435 5.73492 13.0435 5.43492C13.0435 5.13492 12.8 4.89144 12.5 4.89144Z" fill="white"/>
</svg>
