<svg width="14" height="11" viewBox="0 0 14 11" fill="none" xmlns="http://www.w3.org/2000/svg">
<path d="M1.5 4.89144H12.3421L8.19049 0.937089C7.9731 0.730024 7.96467 0.386002 8.17174 0.168611C8.37853 -0.0485088 8.72255 -0.0572045 8.94022 0.149861L13.6815 4.66616C13.8867 4.8716 14 5.14443 14 5.43492C14 5.72513 13.8867 5.99823 13.672 6.21263L8.93995 10.7197C8.83478 10.82 8.7 10.8697 8.56522 10.8697C8.42174 10.8697 8.27826 10.8132 8.17147 10.7009C7.9644 10.4836 7.97283 10.1398 8.19022 9.93274L12.3592 5.97839H1.5C1.2 5.97839 0.956522 5.73492 0.956522 5.43492C0.956522 5.13492 1.2 4.89144 1.5 4.89144Z" fill="white"/>
</svg>
